Coordinates
version=1
nRows=19
nColumns=36
inDegrees=yes

Units are S.I. units (second, meters, Newtons, ...)
If the header above contains a line with 'inDegrees', this indicates whether rotational values are in degrees (yes) or radians (no).

endheader
time	pelvis_tilt	pelvis_list	pelvis_rotation	pelvis_tx	pelvis_ty	pelvis_tz	hip_flexion_r	hip_adduction_r	hip_rotation_r	knee_angle_r	knee_angle_r_beta	ankle_angle_r	subtalar_angle_r	mtp_angle_r	hip_flexion_l	hip_adduction_l	hip_rotation_l	knee_angle_l	knee_angle_l_beta	ankle_angle_l	subtalar_angle_l	mtp_angle_l	lumbar_extension	lumbar_bending	lumbar_rotation	arm_flex_r	arm_add_r	arm_rot_r	elbow_flex_r	pro_sup_r	arm_flex_l	arm_add_l	arm_rot_l	elbow_flex_l	pro_sup_l
      1.75000000	     -6.89092119	     -2.86358399	      7.66325159	      0.03574599	      1.10285688	      0.39480332	      9.50912535	      2.06455658	    -19.30369791	     10.59774211	      0.18496549	      6.68192567	    -12.55109339	     -7.49999452	     12.13628103	     -0.56352129	     11.09667201	     10.50685203	      0.18337916	      6.79647002	     -5.57784818	     -7.49999452	      5.80741271	      3.18974116	     -4.93752329	     -8.56541051	     -3.79452728	     -7.07444861	     32.59591553	     96.52645357	     -4.83353651	     -6.71075610	     22.52030564	     30.68769701	     79.92009264
      1.76666670	     -4.72962508	     -2.32345887	      7.99226752	      0.04175628	      1.10657097	      0.39788154	      5.29641227	      2.16681920	    -20.05502642	      8.45596339	      0.14758440	      7.55715034	     -8.70011156	     -7.49999475	     10.79871452	     -0.05680470	     10.96471134	     13.75319258	      0.24003849	      9.62330754	     -4.64674784	     -7.49999475	      6.11652055	      2.09969124	     -1.62516216	    -10.65799542	     -3.41915178	     -7.58646175	     31.49623081	     96.52435350	     -4.86845521	     -7.71165287	     23.05628697	     31.31972635	     79.88148050
      1.78333330	     -6.72420234	     -2.69610717	      7.81204663	      0.02849523	      1.10339197	      0.39201817	      9.03034306	      2.07133253	    -19.59007433	     10.84769015	      0.18932791	      7.37737811	    -12.70489532	     -7.49999493	     13.45867129	     -0.16439228	     11.70786330	     14.02636752	      0.24480630	      8.39882868	     -7.13575299	     -7.49999493	      5.90972831	      3.08629195	     -4.84681696	    -10.38869627	     -4.28781406	     -8.44801649	     34.03341781	     96.73892509	     -5.06265463	     -7.45142797	     23.27572120	     30.31966764	     79.88340844
      1.80000000	     -4.20304091	     -1.89854372	      7.99933368	      0.04106889	      1.11299486	      0.39767800	      4.44571493	      1.91659570	    -20.47770525	      8.28784247	      0.14465014	      7.65035870	     -8.65801537	     -7.49999517	     11.75971693	      0.58752118	     11.36672954	     16.96894104	      0.29616389	     10.66446075	     -5.94214054	     -7.49999517	      5.75926344	      1.82799260	     -1.03219422	    -11.89184867	     -3.93065771	     -8.77394789	     33.36492243	     96.64119670	     -4.83942590	     -8.49455711	     23.46531766	     30.37402061	     79.67173451
      1.81666670	     -6.23378585	     -2.19757815	      7.60723113	      0.03528257	      1.10964837	      0.39470781	      8.18573543	      1.69013729	    -19.66657281	     10.72607024	      0.18720524	      7.51737673	    -12.42792558	     -7.49999540	     13.86328132	      0.34230008	     11.44973974	     16.36237406	      0.28557730	      9.49786878	     -7.82585393	     -7.49999540	      5.40974415	      2.78688182	     -4.03938994	    -11.11403732	     -4.99419407	     -9.70554495	     36.21741036	     96.93319124	     -4.70782653	     -8.21260735	     23.25468125	     29.13577304	     79.50693676
      1.83333330	     -4.00463803	     -1.65098953	      7.85706041	      0.04199153	      1.10236331	      0.39772824	      4.55062318	      1.48733931	    -20.33509117	      8.92389215	      0.15575130	      8.80473094	     -8.66247052	     -7.49999567	     12.21034020	      0.86846388	     11.14534601	     18.66364600	      0.32574207	     12.25675865	     -6.52562696	     -7.49999567	      5.47291858	      1.83227238	     -0.04895709	    -12.70488382	     -4.79765224	    -10.34169813	     36.30791139	     96.75929830	     -4.30259837	     -9.33827641	     22.63643676	     30.20873996	     79.13526525
      1.85000000	     -5.99409471	     -2.07857243	      7.67831048	      0.04324335	      1.10401436	      0.39692765	      8.11075481	      1.53989407	    -19.51729043	     11.16580502	      0.19488006	      8.98535119	    -12.39267320	     -7.49999583	     13.66006057	      0.34860131	     11.19985503	     17.43523616	      0.30430228	     10.96201445	     -8.06337029	     -7.49999583	      4.85083509	      2.76600371	     -3.37176053	    -11.78909272	     -5.88566946	    -11.03460933	     39.40728987	     96.94639539	     -4.36089395	     -9.00532117	     21.91567372	     28.97031359	     78.90661186
      1.86666670	     -4.18037391	     -1.84851857	      7.44947956	      0.03475093	      1.10356393	      0.39517910	      5.23352954	      1.42378634	    -19.65489381	     10.09692282	      0.17622455	      9.67758570	     -8.99591246	     -7.49999602	     12.36082563	      0.66301564	     10.93938258	     19.46103205	      0.33965909	     13.16191576	     -6.84953535	     -7.49999602	      5.09568480	      2.13472658	      0.72009351	    -13.11732967	     -6.12440732	    -11.63113198	     38.50953856	     96.78470413	     -3.83375163	     -9.64610689	     21.03143933	     29.63282033	     78.57262004
      1.88333330	     -6.44211015	     -2.33167136	      6.98421990	      0.03654731	      1.10243132	      0.39447691	      9.71917381	      1.40682219	    -18.16611837	     13.11893845	      0.22896867	      9.10264878	    -13.64302534	     -7.49999619	     14.44056371	      0.21239779	     11.09609437	     18.23012098	      0.31817563	     11.35542709	     -8.65154885	     -7.49999619	      4.18223478	      3.31012966	     -2.97430054	    -11.44954756	     -7.54159804	    -12.26952808	     40.49172480	     96.96655006	     -3.58935494	     -8.99976364	     20.24996706	     28.37637417	     78.39245914
      1.90000000	     -4.53266883	     -2.02492945	      6.77916001	      0.03574683	      1.10014752	      0.39512768	      7.02336221	      1.07224991	    -18.13084650	     12.57701141	      0.21951026	     10.22708386	    -10.17883550	     -7.49999675	     13.57727102	      0.70475557	     10.58049191	     21.08470706	      0.36799756	     13.58446853	     -7.29946292	     -7.49999675	      4.36036129	      2.54117093	      0.87553491	    -12.82069607	     -7.74164146	    -12.81444574	     38.23822195	     94.96127290	     -2.82786196	     -9.52809788	     19.79373999	     28.66809129	     77.05482148
      1.91666670	     -7.21703042	     -2.45675947	      6.11455083	      0.04473626	      1.09919939	      0.39725686	     11.56034799	      1.25337078	    -16.30787136	     15.34733541	      0.26786153	      9.73217005	    -14.66437040	     -7.49999689	     15.97176379	      0.09964950	     10.11226175	     20.11152146	      0.35101227	     12.44722774	     -8.52126777	     -7.49999689	      3.97958988	      3.61486111	     -2.80748740	    -11.35427393	     -8.89478705	    -13.00138102	     39.82548235	     95.54335323	     -3.44204253	     -9.00745562	     19.07361586	     28.00348326	     77.11281812
      1.93333330	     -5.74208788	     -2.28854843	      5.59190247	      0.03683731	      1.09599311	      0.39574716	      9.25431938	      1.08268689	    -15.97130555	     14.72699763	      0.25703460	     10.35679765	    -11.97220066	     -7.49999698	     15.20825622	      0.38916914	      9.84864304	     22.20238882	      0.38750479	     14.57699818	     -7.58441737	     -7.49999698	      4.42594132	      3.00407605	      1.46323830	    -12.60425988	     -9.10051509	    -12.84480497	     36.98581716	     95.51248276	     -2.79785751	     -9.35442716	     18.36842906	     28.77410125	     76.99741442
      1.95000000	     -7.50548371	     -2.34844630	      4.71464842	      0.04584976	      1.09675259	      0.39819897	     13.18407242	      0.96883023	    -14.86077445	     18.18171050	      0.31733071	     11.18047146	    -14.55260138	     -7.49999702	     16.36788157	     -0.12107403	      8.84142653	     20.73918165	      0.36196700	     13.71719758	     -8.08285864	     -7.49999702	      2.34514658	      3.81994182	     -2.25626502	    -10.17037859	     -9.79643032	    -13.28532415	     38.79042779	     95.53551339	     -3.39141275	     -8.89110383	     18.28699101	     27.85723111	     77.09705377
      1.96666670	     -6.29262642	     -2.18205821	      4.76238153	      0.05209665	      1.09432311	      0.40132354	     10.85506643	      0.96856150	    -14.27658621	     17.74881901	      0.30977533	     11.55161795	    -13.19755932	     -7.49999709	     16.17887968	      0.19951969	      8.95357119	     23.89277180	      0.41700754	     15.70726613	     -7.57058626	     -7.49999709	      3.40019315	      2.83997891	      1.35032800	    -12.26789437	     -9.35344573	    -12.83358587	     36.13222392	     95.50335230	     -3.64481897	     -9.55357632	     17.29252776	     28.43893166	     76.89867237
      1.98333330	     -9.36937757	     -2.15008674	      4.04831848	      0.05399598	      1.09182810	      0.40152891	     16.06205097	      0.92043674	    -12.41964339	     21.36103487	      0.37282039	     11.37209494	    -17.55385040	     -7.49999729	     19.00668611	     -0.24037183	      7.96280231	     23.20501054	      0.40500384	     15.28540278	     -7.88880452	     -7.49999729	      3.16117500	      3.22250832	     -2.55349896	    -10.19054553	     -9.88401938	    -11.75149518	     36.72722348	     96.14839002	     -5.49689329	     -8.81212297	     13.80480807	     28.56670716	     76.80560080
      2.00000000	     -7.28278158	     -1.80305916	      4.49585085	      0.05241077	      1.09215498	      0.40194231	     12.94783124	      0.54340579	    -12.29160571	     20.92362457	      0.36518614	     12.93974955	    -15.03413422	     -7.49999735	     17.62452010	      0.22221697	      7.97082935	     25.49952788	      0.44505072	     17.18960006	     -6.70794407	     -7.49999735	      2.55803094	      2.00554009	      0.88941556	    -11.49350967	     -9.11656965	    -11.32282732	     34.16033720	     96.12262605	     -4.65092190	     -9.44950106	     13.00455207	     28.89623222	     76.88063477
      2.01666670	     -8.94671314	     -1.47326086	      4.74167815	      0.06796439	      1.09293980	      0.40595459	     16.57695000	      0.21304283	    -11.19254245	     24.49771885	      0.42756585	     13.80446241	    -17.94554333	     -7.49999738	     18.20652022	      0.13666146	      7.48872882	     23.84319075	      0.41614218	     16.28584051	     -6.91306810	     -7.49999738	      0.40377537	      1.96201310	     -3.57927574	     -9.91823819	     -8.75122813	    -11.70736414	     35.85147179	     95.97735976	     -5.57910283	     -9.23814473	     12.82298823	     28.00350093	     76.99123197
      2.03333330	     -7.34232368	     -1.45744011	      5.48340176	      0.05910531	      1.09378698	      0.40311132	     14.30177973	      0.21811881	    -10.49909246	     24.65728371	      0.43035079	     13.96070976	    -17.64132907	     -7.49999743	     17.49530555	      0.36287910	      7.80217294	     26.31197320	      0.45923057	     17.52384507	     -5.68143046	     -7.49999743	      0.74813863	      0.96906668	     -0.71634633	    -11.19959866	     -7.95121562	    -11.06659532	     33.55775317	     95.96454026	     -5.01693829	     -9.70386324	     12.27299628	     27.82486758	     76.98557812
      2.05000000	     -8.95746032	     -1.19369679	      4.90882195	      0.06074341	      1.09031368	      0.40324113	     18.71132314	      0.12325781	     -8.89534756	     28.72615262	      0.50136594	     14.61405005	    -21.38032970	     -7.49999746	     18.78831991	      0.17367211	      6.72925849	     24.99090136	      0.43617351	     16.80203759	     -5.90306283	     -7.49999746	     -2.13362859	      1.24854270	     -4.81776455	     -8.58459195	     -7.71513651	    -10.97156539	     35.12457696	     95.87697499	     -5.42262953	     -9.03544399	     12.31165016	     26.53511221	     77.05748220
